<?xml version="1.0" encoding="UTF-8" standalone="no"?>
<svg
   xmlns:dc="http://purl.org/dc/elements/1.1/"
   xmlns:cc="http://creativecommons.org/ns#"
   xmlns:rdf="http://www.w3.org/1999/02/22-rdf-syntax-ns#"
   xmlns:svg="http://www.w3.org/2000/svg"
   xmlns="http://www.w3.org/2000/svg"
   xml:space="preserve"
   viewBox="0 0 16 16"
   y="0px"
   x="0px"
   id="Layer_1"
   version="1.1"><defs
     id="defs11" /><path
     style="fill:#ffb800;stroke:none;stroke-opacity:1;fill-opacity:1;stroke-width:0.1;stroke-miterlimit:4;stroke-dasharray:none"
     id="path2"
     d="M15.976 7.485l-.699-4.001A2.995 2.995 0 0 0 12.321 1h-4.32C6.346 1 5 2.346 5 4l.001 4.738c0 .737.27 1.445.759 1.994l3.494 3.932a1 1 0 0 0 .89.326c1.087-.157 1.4-.42 1.504-.508.447-.378.893-1.06.491-2.129L11.362 10l2.463.001a2.176 2.176 0 0 0 2.15-2.516zm-2.02.455a.173.173 0 0 1-.133.061h-2.464c-.642 0-1.229.296-1.61.813a1.99 1.99 0 0 0-.293 1.797l.669 2.023-2.871-3.23A1.002 1.002 0 0 1 7 8.738V4c0-.551.449-1 1-1h4.32c.486 0 .9.348.984.828l.694 3.97a.174.174 0 0 1-.041.142z" /><path
     style="fill:#ffb800;stroke:none;stroke-opacity:1;fill-opacity:1;stroke-width:0.1;stroke-miterlimit:4;stroke-dasharray:none"
     id="path4"
     d="M3 1H1a1 1 0 0 0-1 1v7a1 1 0 0 0 1 1h2a1 1 0 0 0 1-1V2a1 1 0 0 0-1-1z" /><metadata
     id="metadata6"><rdf:RDF><rdf:Description
         dc:language="en"
         dc:format="image/svg+xml"
         dc:date="2018-06-20"
         dc:publisher="Iconscout"
         dc:description="dislike"
         dc:title="dislike"
         about="https://iconscout.com/legal#licenses"><dc:creator><rdf:Bag><rdf:li>Those Icons</rdf:li></rdf:Bag></dc:creator></rdf:Description><cc:Work
         rdf:about=""><dc:format>image/svg+xml</dc:format><dc:type
           rdf:resource="http://purl.org/dc/dcmitype/StillImage" /><dc:title></dc:title></cc:Work></rdf:RDF></metadata></svg>