<?xml version="1.0" encoding="UTF-8" standalone="no"?>
<svg
   xmlns:dc="http://purl.org/dc/elements/1.1/"
   xmlns:cc="http://creativecommons.org/ns#"
   xmlns:rdf="http://www.w3.org/1999/02/22-rdf-syntax-ns#"
   xmlns:svg="http://www.w3.org/2000/svg"
   xmlns="http://www.w3.org/2000/svg"
   xmlns:sodipodi="http://sodipodi.sourceforge.net/DTD/sodipodi-0.dtd"
   xmlns:inkscape="http://www.inkscape.org/namespaces/inkscape"
   data-name="Layer 1"
   viewBox="0 0 24 24"
   version="1.1"
   id="svg4"
   sodipodi:docname="hourglass.svg"
   inkscape:version="0.92.4 (unknown)">
  <metadata
     id="metadata10">
    <rdf:RDF>
      <cc:Work
         rdf:about="">
        <dc:format>image/svg+xml</dc:format>
        <dc:type
           rdf:resource="http://purl.org/dc/dcmitype/StillImage" />
      </cc:Work>
    </rdf:RDF>
  </metadata>
  <defs
     id="defs8" />
  <sodipodi:namedview
     pagecolor="#ffffff"
     bordercolor="#666666"
     borderopacity="1"
     objecttolerance="10"
     gridtolerance="10"
     guidetolerance="10"
     inkscape:pageopacity="0"
     inkscape:pageshadow="2"
     inkscape:window-width="1230"
     inkscape:window-height="1000"
     id="namedview6"
     showgrid="false"
     inkscape:zoom="20.095959"
     inkscape:cx="11.908336"
     inkscape:cy="8.1990661"
     inkscape:window-x="50"
     inkscape:window-y="0"
     inkscape:window-maximized="1"
     inkscape:current-layer="svg4" />
  <path
     d="M11.5,14.91a.5.5,0,1,0-.5-.5A.5.5,0,0,0,11.5,14.91Zm6.5-9V5h.2a.8.8,0,0,0,.8-.8V2.8a.8.8,0,0,0-.8-.8H5.8a.8.8,0,0,0-.8.8V4.2a.8.8,0,0,0,.8.8H6v.92A4,4,0,0,0,7.21,8.78a.43.43,0,0,0,.09.1l0,0L10.75,12,7.34,15.07a4.08,4.08,0,0,0-1.28,2.3.5.5,0,0,0,1,.18,3.11,3.11,0,0,1,1-1.74l3.49-3.14.16.15h0l3.32,3a3.08,3.08,0,0,1,1,2.27V19H14.43l0-.34A2.1,2.1,0,0,0,13,17a1.09,1.09,0,0,1-.6-.48l-.44-.74a.52.52,0,0,0-.86,0l-.44.75A1.12,1.12,0,0,1,10,17a2.1,2.1,0,0,0-1.41,1.7l0,.34H5.8a.8.8,0,0,0-.8.8v1.4a.8.8,0,0,0,.8.8H18.2a.8.8,0,0,0,.8-.8V19.8a.8.8,0,0,0-.8-.8H18v-.92a4.06,4.06,0,0,0-1.34-3L13.25,12l3.41-3.07A4.06,4.06,0,0,0,18,5.92ZM9.61,18.8a1.08,1.08,0,0,1,.74-.89A2.08,2.08,0,0,0,11.48,17l0,0,0,0a2.08,2.08,0,0,0,1.13.91,1.08,1.08,0,0,1,.74.89l0,.2H9.58ZM17,20v1H6V20ZM6,3H17V4H6ZM16,5.92a3.08,3.08,0,0,1-1,2.27l-3.32,3h0l-.16.15L8.91,9h3.48a.5.5,0,0,0,0-1H7.84A3,3,0,0,1,7,5.92V5h9Z"
     id="path2"
     style="fill:#ffffff;fill-opacity:1;stroke:none;stroke-opacity:1" />
</svg>
