<?xml version="1.0" encoding="UTF-8" standalone="no"?>
<svg
   xmlns:dc="http://purl.org/dc/elements/1.1/"
   xmlns:cc="http://creativecommons.org/ns#"
   xmlns:rdf="http://www.w3.org/1999/02/22-rdf-syntax-ns#"
   xmlns:svg="http://www.w3.org/2000/svg"
   xmlns="http://www.w3.org/2000/svg"
   xmlns:sodipodi="http://sodipodi.sourceforge.net/DTD/sodipodi-0.dtd"
   xmlns:inkscape="http://www.inkscape.org/namespaces/inkscape"
   data-name="Layer 1"
   viewBox="0 0 24 24"
   version="1.1"
   id="svg26"
   sodipodi:docname="hourglass(1).svg"
   inkscape:version="0.92.4 (unknown)">
  <metadata
     id="metadata32">
    <rdf:RDF>
      <cc:Work
         rdf:about="">
        <dc:format>image/svg+xml</dc:format>
        <dc:type
           rdf:resource="http://purl.org/dc/dcmitype/StillImage" />
      </cc:Work>
    </rdf:RDF>
  </metadata>
  <defs
     id="defs30" />
  <sodipodi:namedview
     pagecolor="#ffffff"
     bordercolor="#666666"
     borderopacity="1"
     objecttolerance="10"
     gridtolerance="10"
     guidetolerance="10"
     inkscape:pageopacity="0"
     inkscape:pageshadow="2"
     inkscape:window-width="1230"
     inkscape:window-height="1000"
     id="namedview28"
     showgrid="false"
     inkscape:zoom="22.627417"
     inkscape:cx="12.540378"
     inkscape:cy="10.370963"
     inkscape:window-x="50"
     inkscape:window-y="0"
     inkscape:window-maximized="1"
     inkscape:current-layer="svg26" />
  <path
     fill="#000063"
     d="M17.2,5H5.8A.8.8,0,0,1,5,4.2V2.8A.8.8,0,0,1,5.8,2H17.2a.8.8,0,0,1,.8.8V4.2A.8.8,0,0,1,17.2,5ZM6,4H17V3H6Z"
     id="path4"
     style="fill:#ffffff;fill-opacity:1" />
  <path
     fill="#000063"
     d="M6.5,20a.5.5,0,0,1-.5-.5V18.08a4.06,4.06,0,0,1,1.34-3L10.75,12,7.34,8.93A4.06,4.06,0,0,1,6,5.92V4.5a.5.5,0,0,1,1,0V5.92A3.08,3.08,0,0,0,8,8.19l3.82,3.44a.49.49,0,0,1,0,.74L8,15.81a3.08,3.08,0,0,0-1,2.27V19.5A.5.5,0,0,1,6.5,20Z"
     id="path6"
     style="fill:#ffffff;fill-opacity:1" />
  <path
     fill="#000063"
     d="M16.5,20a.5.5,0,0,1-.5-.5V18.08a3.08,3.08,0,0,0-1-2.27l-3.82-3.44a.49.49,0,0,1,0-.74L15,8.19a3.08,3.08,0,0,0,1-2.27V4.5a.5.5,0,0,1,1,0V5.92a4.06,4.06,0,0,1-1.34,3L12.25,12l3.41,3.07a4.06,4.06,0,0,1,1.34,3V19.5A.5.5,0,0,1,16.5,20Z"
     id="path8"
     style="fill:#ffffff;fill-opacity:1" />
  <path
     fill="#000063"
     d="M18.2,19.5h-.7V18.08a3.58,3.58,0,0,0-1.17-2.64L12.5,12l-.5.45,3.33,3a3.58,3.58,0,0,1,1.17,2.64V19.5h.7a.29.29,0,0,1,.3.3v1.4a.29.29,0,0,1-.3.3h1a.29.29,0,0,0,.3-.3V19.8A.29.29,0,0,0,18.2,19.5Z"
     id="path12"
     style="fill:#ffffff;fill-opacity:1" />
  <path
     fill="#000063"
     d="M18.2,22h-1a.5.5,0,0,1-.2-1V20h-.5a.5.5,0,0,1-.5-.5V18.08a3.08,3.08,0,0,0-1-2.27l-3.32-3a.49.49,0,0,1,0-.74l.5-.45a.49.49,0,0,1,.66,0l3.83,3.44a4.06,4.06,0,0,1,1.34,3V19h.2a.8.8,0,0,1,.8.8v1.4A.8.8,0,0,1,18.2,22ZM18,21v0Zm.2-1h0ZM17,18.08h0Z"
     id="path14"
     style="fill:#ffffff;fill-opacity:1" />
  <path
     fill="#000063"
     d="M18.2,4.5h-.7V5.92a3.58,3.58,0,0,1-1.17,2.64L12.5,12l-.5-.45,3.33-3A3.58,3.58,0,0,0,16.5,5.92V4.5h.7a.29.29,0,0,0,.3-.3V2.8a.29.29,0,0,0-.3-.3h1a.29.29,0,0,1,.3.3V4.2A.29.29,0,0,1,18.2,4.5Z"
     id="path16"
     style="fill:#ffffff;fill-opacity:1" />
  <path
     fill="#000063"
     d="M12.5,12.5a.46.46,0,0,1-.33-.13l-.5-.45a.49.49,0,0,1,0-.74l3.32-3a3.08,3.08,0,0,0,1-2.27V4.5a.5.5,0,0,1,.5-.5H17V3a.5.5,0,0,1,.2-1h1a.8.8,0,0,1,.8.8V4.2a.8.8,0,0,1-.8.8H18v.92a4.06,4.06,0,0,1-1.34,3l-3.83,3.44A.46.46,0,0,1,12.5,12.5ZM17,5V5Z"
     id="path18"
     style="fill:#ffffff;fill-opacity:1" />
  <path
     fill="#000063"
     d="M17.2,22H5.8a.8.8,0,0,1-.8-.8V19.8a.8.8,0,0,1,.8-.8H17.2a.8.8,0,0,1,.8.8v1.4A.8.8,0,0,1,17.2,22ZM6,21H17V20H6Z"
     id="path24"
     style="fill:#ffffff;fill-opacity:1" />
</svg>
