<?xml version="1.0" encoding="UTF-8" standalone="no"?>
<svg
   xmlns:dc="http://purl.org/dc/elements/1.1/"
   xmlns:cc="http://creativecommons.org/ns#"
   xmlns:rdf="http://www.w3.org/1999/02/22-rdf-syntax-ns#"
   xmlns:svg="http://www.w3.org/2000/svg"
   xmlns="http://www.w3.org/2000/svg"
   xmlns:sodipodi="http://sodipodi.sourceforge.net/DTD/sodipodi-0.dtd"
   xmlns:inkscape="http://www.inkscape.org/namespaces/inkscape"
   version="1.1"
   id="Layer_1"
   x="0px"
   y="0px"
   viewBox="0 0 16 16"
   xml:space="preserve"
   sodipodi:docname="liked.svg"
   inkscape:version="0.92.4 (unknown)"><defs
     id="defs11" /><sodipodi:namedview
     pagecolor="#ffffff"
     bordercolor="#666666"
     borderopacity="1"
     objecttolerance="10"
     gridtolerance="10"
     guidetolerance="10"
     inkscape:pageopacity="0"
     inkscape:pageshadow="2"
     inkscape:window-width="1230"
     inkscape:window-height="1000"
     id="namedview9"
     showgrid="false"
     inkscape:zoom="33.135772"
     inkscape:cx="9.5973984"
     inkscape:cy="5.3776272"
     inkscape:window-x="50"
     inkscape:window-y="0"
     inkscape:window-maximized="1"
     inkscape:current-layer="Layer_1" /><path
     d="M15.468 6.75A2.175 2.175 0 0 0 13.823 6l-2.468.016.77-2.331c.414-1.107-.032-1.789-.48-2.167-.102-.087-.415-.35-1.502-.508a.997.997 0 0 0-.89.326L5.758 5.269a2.998 2.998 0 0 0-.757 1.992V12c0 1.654 1.345 3 3 3h4.318a2.994 2.994 0 0 0 2.955-2.484l.704-4.032a2.174 2.174 0 0 0-.51-1.734zm-2.164 5.422a.997.997 0 0 1-.985.828H8c-.551 0-1-.449-1-1V7.26c0-.244.091-.48.254-.663l2.87-3.23-.673 2.037a1.981 1.981 0 0 0 .299 1.782c.38.517.967.814 1.609.814h2.464c.067 0 .11.032.134.06.024.028.05.075.046.111l-.7 4.001z"
     id="path2"
     style="stroke:none;stroke-opacity:1;fill:#ffb800;fill-opacity:1" /><path
     d="M3 6H1a1 1 0 0 0-1 1v7a1 1 0 0 0 1 1h2a1 1 0 0 0 1-1V7a1 1 0 0 0-1-1z"
     id="path4"
     style="fill:#ffb800;fill-opacity:1;stroke:none;stroke-opacity:1" /><metadata
     id="metadata6"><rdf:RDF><rdf:Description
         about="https://iconscout.com/legal#licenses"
         dc:title="like"
         dc:description="like"
         dc:publisher="Iconscout"
         dc:date="2018-06-20"
         dc:format="image/svg+xml"
         dc:language="en"><dc:creator><rdf:Bag><rdf:li>Those Icons</rdf:li></rdf:Bag></dc:creator></rdf:Description><cc:Work
         rdf:about=""><dc:format>image/svg+xml</dc:format><dc:type
           rdf:resource="http://purl.org/dc/dcmitype/StillImage" /></cc:Work></rdf:RDF></metadata></svg>