<?xml version="1.0" encoding="UTF-8" standalone="no"?>
<svg
   xmlns:dc="http://purl.org/dc/elements/1.1/"
   xmlns:cc="http://creativecommons.org/ns#"
   xmlns:rdf="http://www.w3.org/1999/02/22-rdf-syntax-ns#"
   xmlns:svg="http://www.w3.org/2000/svg"
   xmlns="http://www.w3.org/2000/svg"
   xmlns:sodipodi="http://sodipodi.sourceforge.net/DTD/sodipodi-0.dtd"
   xmlns:inkscape="http://www.inkscape.org/namespaces/inkscape"
   viewBox="0 0 30 30"
   version="1.1"
   id="svg6"
   sodipodi:docname="settings.svg"
   inkscape:version="0.92.4 (unknown)">
  <metadata
     id="metadata12">
    <rdf:RDF>
      <cc:Work
         rdf:about="">
        <dc:format>image/svg+xml</dc:format>
        <dc:type
           rdf:resource="http://purl.org/dc/dcmitype/StillImage" />
      </cc:Work>
    </rdf:RDF>
  </metadata>
  <defs
     id="defs10" />
  <sodipodi:namedview
     pagecolor="#ffffff"
     bordercolor="#666666"
     borderopacity="1"
     objecttolerance="10"
     gridtolerance="10"
     guidetolerance="10"
     inkscape:pageopacity="0"
     inkscape:pageshadow="2"
     inkscape:window-width="784"
     inkscape:window-height="480"
     id="namedview8"
     showgrid="false"
     inkscape:zoom="7.8666667"
     inkscape:cx="15"
     inkscape:cy="15"
     inkscape:window-x="50"
     inkscape:window-y="0"
     inkscape:window-maximized="0"
     inkscape:current-layer="svg6" />
  <path
     fill="none"
     stroke="#000"
     stroke-linecap="round"
     stroke-linejoin="round"
     stroke-width="2"
     d="M26,16.22V13.78l-2.72-.91a9,9,0,0,0-.92-2.22l1.28-2.56L21.91,6.36,19.35,7.64a9,9,0,0,0-2.22-.92L16.22,4H13.78l-.91,2.72a9,9,0,0,0-2.22.92L8.09,6.36,6.36,8.09l1.28,2.56a9,9,0,0,0-.92,2.22L4,13.78v2.44l2.72.91a9,9,0,0,0,.92,2.22L6.36,21.91l1.73,1.73,2.56-1.28a9,9,0,0,0,2.22.92L13.78,26h2.44l.91-2.72a9,9,0,0,0,2.22-.92l2.56,1.28,1.73-1.73-1.28-2.56a9,9,0,0,0,.92-2.22Z"
     id="path2"
     style="stroke:#ffffff;stroke-opacity:1" />
  <circle
     cx="15"
     cy="15"
     r="4"
     fill="none"
     stroke="#000"
     stroke-linecap="round"
     stroke-linejoin="round"
     stroke-width="2"
     id="circle4"
     style="stroke:#ffffff;stroke-opacity:1" />
</svg>
