<svg id="SvgjsSvg1001" width="288" height="288" xmlns="http://www.w3.org/2000/svg" version="1.1" xmlns:xlink="http://www.w3.org/1999/xlink" xmlns:svgjs="http://svgjs.com/svgjs"><defs id="SvgjsDefs1002"></defs><g id="SvgjsG1008" transform="matrix(0.916700005531311,0,0,0.916700005531311,11.995200157165527,11.994649887084961)"><svg xmlns="http://www.w3.org/2000/svg" id="svg6485" width="288" height="288" version="1.1" viewBox="0 0 16 16"><g id="layer1" transform="translate(0 -1036.362)" fill="#ffffff" class="color000 svgShape"><path id="path5576" fill="#ffffff" fill-opacity="1" fill-rule="nonzero" stroke="none" stroke-dasharray="none" stroke-dashoffset="0" stroke-linecap="round" stroke-linejoin="round" stroke-miterlimit="4" stroke-opacity="1" stroke-width="1" d="m 8.1015605,1039.614 c -0.11341,0 -0.22224,0.046 -0.3086,0.119 l -2.50195,2.1231 -3.17382,0 c -0.27613,0 -0.49998,0.2239 -0.5,0.5 l 0,4 c 2e-5,0.2762 0.22387,0.5 0.5,0.5 l 3.17382,0 2.50195,2.1231 c 0.32471,0.2764 0.82427,0.046 0.82422,-0.3808 l 0,-8.4844 c 10e-5,-0.2824 -0.23341,-0.5089 -0.51562,-0.5 z m 4.0175795,0 a 0.50005,0.50005 0 0 0 -0.34766,0.8574 c 1.03159,1.0315 1.61134,2.4298 1.61133,3.8887 -10e-6,1.4589 -0.57976,2.859 -1.61133,3.8906 a 0.50005,0.50005 0 1 0 0.70703,0.7071 c 1.218839,-1.2188 1.904289,-2.874 1.904299,-4.5977 2e-5,-1.7237 -0.68542,-3.3768 -1.904299,-4.5957 a 0.50005,0.50005 0 0 0 -0.35937,-0.1504 z m -2,1.4141 a 0.50005,0.50005 0 0 0 -0.3476595,0.8574 c 0.6564995,0.6565 1.0253795,1.5461 1.0253895,2.4746 -10e-6,0.9285 -0.36889,1.8201 -1.0253895,2.4766 a 0.50005,0.50005 0 1 0 0.7070295,0.707 c 0.84378,-0.8437 1.31835,-1.9903 1.31836,-3.1836 -10e-6,-1.1933 -0.47458,-2.3379 -1.31836,-3.1816 a 0.50005,0.50005 0 0 0 -0.35937,-0.1504 z" baseline-shift="baseline" clip-rule="nonzero" color="#000" color-interpolation="sRGB" color-interpolation-filters="linearRGB" color-rendering="auto" direction="ltr" display="inline" enable-background="accumulate" font-family="sans-serif" font-size="medium" font-stretch="normal" font-style="normal" font-variant="normal" font-weight="400" image-rendering="auto" letter-spacing="normal" opacity="1" overflow="visible" paint-order="fill markers stroke" shape-rendering="auto" text-anchor="start" text-decoration="none" text-rendering="auto" visibility="visible" style="line-height:normal;text-indent:0;text-align:start;text-decoration-line:none;text-decoration-style:solid;text-decoration-color:#000;text-transform:none;white-space:normal;isolation:auto;mix-blend-mode:normal;solid-color:#000;solid-opacity:1" word-spacing="normal" writing-mode="lr-tb" class="color000 svgShape"></path></g></svg></g></svg>